<?xml version="1.0" standalone="no"?>
<!DOCTYPE svg PUBLIC "-//W3C//DTD SVG 20010904//EN"
 "http://www.w3.org/TR/2001/REC-SVG-20010904/DTD/svg10.dtd">
<svg version="1.0" xmlns="http://www.w3.org/2000/svg"
 viewBox="0 0 473.000000 144.000000"
 preserveAspectRatio="xMidYMid meet">

<g transform="translate(0.000000,144.000000) scale(0.100000,-0.100000)"
fill="#000000" stroke="none">
<path d="M11 733 c-1 -610 1 -693 14 -693 8 0 15 -9 15 -20 0 -20 7 -20 2310
-20 l2310 0 0 70 0 70 -1880 0 -1879 0 -20 68 c-27 89 -201 712 -201 717 0 2
-30 -5 -67 -16 -38 -10 -68 -19 -69 -19 0 0 46 -165 102 -367 57 -203 104
-371 104 -376 0 -4 -68 -6 -152 -5 l-151 3 -213 630 c-117 347 -215 635 -218
640 -2 6 -5 -302 -5 -682z"/>
</g>
</svg>
