<?xml version="1.0" standalone="no"?>
<!DOCTYPE svg PUBLIC "-//W3C//DTD SVG 20010904//EN"
 "http://www.w3.org/TR/2001/REC-SVG-20010904/DTD/svg10.dtd">
<svg version="1.0" xmlns="http://www.w3.org/2000/svg"
 viewBox="0 0 473.000000 150.000000"
 preserveAspectRatio="xMidYMid meet">

<g transform="translate(0.000000,150.000000) scale(0.100000,-0.100000)"
fill="#000000" stroke="none">
<path d="M11 793 c-1 -610 1 -693 14 -693 8 0 15 -9 15 -20 0 -19 9 -20 378
-22 207 -2 1247 -2 2310 0 l1932 2 0 70 0 70 -1890 0 c-1039 0 -1890 2 -1890
4 0 7 -370 1159 -373 1163 -7 7 -127 -39 -127 -49 0 -5 77 -249 170 -541 94
-293 173 -542 177 -555 l5 -23 -142 3 -143 3 -213 630 c-117 347 -215 635
-218 640 -2 6 -5 -302 -5 -682z"/>
</g>
</svg>
