<?xml version="1.0" standalone="no"?>
<!DOCTYPE svg PUBLIC "-//W3C//DTD SVG 20010904//EN"
 "http://www.w3.org/TR/2001/REC-SVG-20010904/DTD/svg10.dtd">
<svg version="1.0" xmlns="http://www.w3.org/2000/svg"
 viewBox="0 0 113.000000 113.000000"
 preserveAspectRatio="xMidYMid meet">

<g transform="translate(0.000000,113.000000) scale(0.04500000,-0.04500000)"
fill="#000000" stroke="none">
<path d="M455 1118 c-95 -18 -207 -80 -284 -156 -176 -177 -219 -429 -109
-651 46 -95 161 -208 258 -254 88 -41 156 -57 248 -57 328 1 584 281 559 610
-26 331 -343 571 -672 508z m185 -138 c250 -47 404 -302 330 -543 -92 -299
-476 -395 -698 -175 -172 170 -173 429 -3 599 104 104 233 145 371 119z"/>
<path d="M450 858 c-75 -29 -150 -105 -179 -183 -54 -143 4 -304 139 -387 112
-68 277 -47 373 47 65 65 91 123 95 216 4 67 0 85 -23 138 -70 156 -247 230
-405 169z m177 -129 c98 -37 142 -160 91 -251 -63 -112 -225 -118 -298 -11
-20 29 -25 49 -25 98 0 52 4 67 28 98 50 66 133 93 204 66z"/>
</g>
</svg>
