<?xml version="1.0" standalone="no"?>
<!DOCTYPE svg PUBLIC "-//W3C//DTD SVG 20010904//EN"
 "http://www.w3.org/TR/2001/REC-SVG-20010904/DTD/svg10.dtd">
<svg version="1.0" xmlns="http://www.w3.org/2000/svg"
 viewBox="0 0 388.000000 133.000000"
 preserveAspectRatio="xMidYMid meet">

<g transform="translate(0.000000,133.000000) scale(0.100000,-0.100000)"
fill="#000000" stroke="none">
<path d="M478 1298 c-32 -11 -58 -24 -58 -28 0 -5 88 -248 195 -540 107 -292
195 -534 195 -536 0 -3 -61 -3 -136 -2 l-136 3 -199 534 c-109 294 -201 536
-203 539 -7 6 -126 -41 -126 -50 0 -10 430 -1162 436 -1167 3 -3 18 0 34 6 17
6 30 7 30 2 0 -5 661 -9 1650 -9 l1650 0 0 70 0 70 -983 0 c-929 0 -983 1
-984 17 -1 10 -54 195 -117 412 -64 217 -116 395 -116 397 0 1 -30 -6 -67 -17
-38 -10 -68 -19 -69 -19 0 0 50 -174 113 -387 62 -213 113 -391 113 -396 0 -4
-61 -6 -136 -5 l-137 3 -208 559 c-115 308 -211 561 -213 564 -6 6 -126 -41
-126 -50 0 -4 77 -213 171 -465 94 -252 184 -493 200 -535 l28 -78 -158 0
-158 0 -148 403 c-251 685 -267 727 -274 726 -3 0 -32 -10 -63 -21z"/>
</g>
</svg>
