<?xml version="1.0" standalone="no"?>
<!DOCTYPE svg PUBLIC "-//W3C//DTD SVG 20010904//EN"
 "http://www.w3.org/TR/2001/REC-SVG-20010904/DTD/svg10.dtd">
<svg version="1.0" xmlns="http://www.w3.org/2000/svg"
 viewBox="0 0 388.000000 130.000000"
 preserveAspectRatio="xMidYMid meet">

<g transform="translate(0.000000,130.000000) scale(0.100000,-0.100000)"
fill="#000000" stroke="none">
<path d="M463 1267 c-29 -12 -53 -25 -53 -29 0 -4 90 -248 200 -543 110 -295
200 -538 200 -541 0 -2 -60 -4 -132 -4 l-133 0 -200 551 c-110 303 -203 555
-206 560 -6 11 -129 -29 -129 -42 0 -5 95 -270 212 -590 231 -633 209 -587
272 -563 13 5 16 -1 16 -25 l0 -31 1650 0 1650 0 0 70 0 70 -1237 1 c-681 1
-1227 4 -1213 8 14 4 24 14 22 22 -1 9 -54 192 -117 409 -63 216 -115 394
-115 396 0 1 -30 -6 -67 -17 -38 -10 -68 -19 -69 -19 -1 0 225 -772 231 -787
3 -10 -28 -13 -139 -13 l-144 0 -40 107 c-299 807 -386 1033 -396 1032 -6 -1
-35 -11 -63 -22z"/>
</g>
</svg>
