<?xml version="1.0" standalone="no"?>
<!DOCTYPE svg PUBLIC "-//W3C//DTD SVG 20010904//EN"
 "http://www.w3.org/TR/2001/REC-SVG-20010904/DTD/svg10.dtd">
<svg version="1.0" xmlns="http://www.w3.org/2000/svg"
 viewBox="0 0 388.000000 133.000000"
 preserveAspectRatio="xMidYMid meet">

<g transform="translate(0.000000,133.000000) scale(0.100000,-0.100000)"
fill="#000000" stroke="none">
<path d="M463 1297 c-29 -12 -53 -25 -53 -29 0 -4 90 -248 200 -543 110 -295
200 -538 200 -541 0 -2 -62 -4 -137 -4 l-138 0 -195 536 c-107 295 -198 540
-201 545 -6 11 -129 -29 -129 -42 0 -5 95 -270 212 -590 231 -633 209 -587
272 -563 11 4 16 1 16 -10 0 -15 141 -16 1650 -16 l1650 0 0 70 0 70 -978 0
-979 0 -204 561 c-112 308 -207 565 -210 570 -6 11 -129 -29 -129 -42 0 -5 88
-250 195 -544 107 -294 195 -537 195 -540 0 -3 -62 -5 -138 -5 l-139 0 -204
561 c-112 308 -207 565 -210 570 -6 11 -129 -29 -129 -42 0 -5 88 -250 195
-544 107 -294 195 -537 195 -540 0 -3 -69 -5 -154 -5 l-154 0 -40 107 c-299
807 -386 1033 -396 1032 -6 -1 -35 -11 -63 -22z"/>
</g>
</svg>
