<?xml version="1.0" standalone="no"?>
<!DOCTYPE svg PUBLIC "-//W3C//DTD SVG 20010904//EN"
 "http://www.w3.org/TR/2001/REC-SVG-20010904/DTD/svg10.dtd">
<svg version="1.0" xmlns="http://www.w3.org/2000/svg"
 viewBox="0 0 388.000000 131.000000"
 preserveAspectRatio="xMidYMid meet">

<g transform="translate(0.000000,131.000000) scale(0.100000,-0.100000)"
fill="#000000" stroke="none">
<path d="M478 1278 c-32 -11 -58 -24 -58 -29 0 -5 88 -250 195 -544 107 -294
195 -537 195 -540 0 -3 -58 -5 -129 -5 l-129 0 -26 68 c-14 37 -106 285 -206
551 -99 266 -182 486 -184 489 -7 6 -126 -41 -126 -50 0 -10 430 -1162 436
-1167 3 -3 18 0 34 6 28 11 30 10 30 -13 l0 -24 1650 0 1650 0 0 70 0 70
-1191 2 -1192 3 -208 559 c-115 308 -211 561 -213 564 -6 6 -126 -41 -126 -50
0 -4 77 -213 171 -465 94 -252 184 -493 200 -536 l28 -77 -158 0 -158 0 -163
448 c-89 246 -183 502 -207 570 -25 67 -48 122 -52 121 -3 0 -32 -10 -63 -21z"/>
</g>
</svg>
