<?xml version="1.0" standalone="no"?>
<!DOCTYPE svg PUBLIC "-//W3C//DTD SVG 20010904//EN"
 "http://www.w3.org/TR/2001/REC-SVG-20010904/DTD/svg10.dtd">
<svg version="1.0" xmlns="http://www.w3.org/2000/svg"
 viewBox="0 0 387.000000 128.000000"
 preserveAspectRatio="xMidYMid meet">

<g transform="translate(0.000000,128.000000) scale(0.100000,-0.100000)"
fill="#000000" stroke="none">
<path d="M68 1248 c-32 -11 -58 -24 -58 -29 0 -5 95 -270 212 -590 231 -633
209 -587 272 -563 12 5 16 0 16 -20 l0 -26 1645 0 1645 0 0 70 0 70 -1409 0
c-1334 0 -1410 1 -1415 18 -12 39 -206 733 -206 737 0 2 -30 -5 -67 -16 -38
-10 -68 -19 -69 -19 0 0 43 -158 98 -350 54 -193 98 -355 98 -360 0 -6 -60
-10 -145 -10 -80 0 -145 2 -145 4 0 3 -350 967 -387 1064 -9 23 -18 42 -22 41
-3 0 -32 -10 -63 -21z"/>
</g>
</svg>
